<svg id="Layer_1" data-name="Layer 1" xmlns="http://www.w3.org/2000/svg" viewBox="0 0 460.09 307"><defs><style>.cls-1{fill:#475558;}.cls-2{fill:#fff;}.cls-3{fill:#efefef;}.cls-4{fill:#e76a58;}.cls-5{fill:#fec052;}.cls-6{fill:#81d154;}.cls-7{fill:#808285;}.cls-8{fill:#bcbec0;}</style></defs><title>Chrome BrowserNew</title><path class="cls-1" d="M481,72.5V50.17a4,4,0,0,0-4-4H24.91a4,4,0,0,0-4,4V72.5Z" transform="translate(-20.91 -46.17)"/><path class="cls-2" d="M21,349.17a4,4,0,0,0,4,4H477a4,4,0,0,0,4-4V72.5H21Z" transform="translate(-20.91 -46.17)"/><rect class="cls-3" y="25.83" width="460.09" height="27.33"/><path class="cls-4" d="M35.84,59.33A3.35,3.35,0,1,1,32.49,56,3.35,3.35,0,0,1,35.84,59.33Z" transform="translate(-20.91 -46.17)"/><path class="cls-5" d="M46,59.33A3.35,3.35,0,1,1,42.63,56,3.35,3.35,0,0,1,46,59.33Z" transform="translate(-20.91 -46.17)"/><circle class="cls-6" cx="31.85" cy="13.17" r="3.35"/><path class="cls-2" d="M443.75,92.24c0,1.21-1.28,2.19-2.87,2.19H92c-1.58,0-2.87-1-2.87-2.19V79.08c0-1.21,1.29-2.19,2.87-2.19h348.9c1.59,0,2.87,1,2.87,2.19Z" transform="translate(-20.91 -46.17)"/><path class="cls-3" d="M190.44,68.73c.15.44-.43.77-1,.77H175.29a.91.91,0,0,1-1-.77l-2.18-8.38c-.09-.41.43-.77,1-.77h14.07a1,1,0,0,1,1,.77Z" transform="translate(-20.91 -46.17)"/><path class="cls-3" d="M172.4,72.5l-4-15.41c-.51-1.57-1.26-2.76-2.8-2.76H70.49c-1.54,0-2.41,1.36-2.8,2.76l-4,15.41Z" transform="translate(-20.91 -46.17)"/><path class="cls-7" d="M165.17,64.67l-1.25-1.25,1.25-1.25a.47.47,0,0,0-.67-.67l-1.25,1.25L162,61.5a.47.47,0,0,0-.67.67l1.25,1.25-1.25,1.25a.46.46,0,0,0,0,.67.48.48,0,0,0,.67,0l1.25-1.25,1.25,1.25a.48.48,0,0,0,.67,0A.46.46,0,0,0,165.17,64.67Z" transform="translate(-20.91 -46.17)"/><path class="cls-7" d="M465.17,82.45a1,1,0,0,1-1,1H458a1,1,0,0,1-1-1h0a1,1,0,0,1,1-1h6.15a1,1,0,0,1,1,1Z" transform="translate(-20.91 -46.17)"/><path class="cls-7" d="M465.17,85.52a1,1,0,0,1-1,1H458a1,1,0,0,1-1-1h0a1,1,0,0,1,1-1h6.15a1,1,0,0,1,1,1Z" transform="translate(-20.91 -46.17)"/><path class="cls-7" d="M465.17,88.6a1,1,0,0,1-1,1H458a1,1,0,0,1-1-1h0a1,1,0,0,1,1-1h6.15a1,1,0,0,1,1,1Z" transform="translate(-20.91 -46.17)"/><path class="cls-8" d="M53,86a.81.81,0,0,0,.16-.48A.89.89,0,0,0,53,85a.08.08,0,0,1,0,0h0l-.15-.15-3.27-3.27a.71.71,0,0,0-1,1l2.1,2.1H44a.89.89,0,0,0,0,1.78h6.68l-2.11,2.1a.71.71,0,0,0,1,1l3.27-3.28a.62.62,0,0,0,.14-.14h0S53,86,53,86Z" transform="translate(-20.91 -46.17)"/><path class="cls-8" d="M28.91,86a.89.89,0,0,1-.16-.48.83.83,0,0,1,.17-.49s0,0,0,0h0a1.06,1.06,0,0,1,.15-.15l3.27-3.27a.71.71,0,0,1,1,1l-2.11,2.1H37.9a.89.89,0,0,1,0,1.78H31.23l2.11,2.1a.71.71,0,0,1-1,1L29.09,86.2a.62.62,0,0,1-.14-.14h0Z" transform="translate(-20.91 -46.17)"/><path class="cls-7" d="M64.57,87.39h0a2.64,2.64,0,1,1,0-3.78l-.71.72,1.26.14,1.26.14-.14-1.26-.15-1.26-.55.56a4,4,0,1,0,0,5.7Z" transform="translate(-20.91 -46.17)"/><polygon class="cls-7" points="58.04 37.32 55.99 35.41 53.94 37.32 51.88 39.23 53.21 39.23 53.21 43.29 55.16 43.29 55.16 40.43 56.82 40.43 56.82 43.29 58.77 43.29 58.77 39.23 60.09 39.23 58.04 37.32"/><polygon class="cls-7" points="58.16 37.05 58.77 37.62 58.77 35.59 57.78 35.59 57.78 36.7 58.16 37.05"/><path class="cls-8" d="M100.32,88.47l-2.39-2.39a2.9,2.9,0,0,0,.37-1.41A2.83,2.83,0,1,0,97,87.08l2.37,2.37c.15.15.5.06.77-.21S100.47,88.62,100.32,88.47Zm-6.73-3.8a1.88,1.88,0,1,1,1.87,1.88A1.87,1.87,0,0,1,93.59,84.67Z" transform="translate(-20.91 -46.17)"/><rect class="cls-8" x="403.65" y="39.02" width="2.88" height="0.58"/><path class="cls-8" d="M430.31,88.85l-1.62-1.62a3.27,3.27,0,1,0-1,1l1.62,1.63c.18.17.53.1.8-.17S430.49,89,430.31,88.85Zm-6.62-3.38a2.31,2.31,0,1,1,2.3,2.31A2.31,2.31,0,0,1,423.69,85.47Z" transform="translate(-20.91 -46.17)"/><path class="cls-8" d="M440.27,85.1c.12-.12.08-.23-.08-.25l-2.25-.33a.6.6,0,0,1-.43-.31l-1-2c-.07-.15-.19-.15-.26,0l-1,2a.64.64,0,0,1-.43.32l-2.25.33c-.16,0-.2.13-.08.25l1.63,1.59a.65.65,0,0,1,.17.5l-.39,2.25c0,.16.07.23.22.15l2-1.06a.62.62,0,0,1,.53,0l2,1.06c.15.07.25,0,.22-.16l-.39-2.24a.67.67,0,0,1,.16-.51Zm-3.64,2.71a.62.62,0,0,0-.53,0l-1.29.68c-.15.08-.25,0-.22-.15l.25-1.45a.62.62,0,0,0-.17-.5l-1.05-1c-.12-.12-.08-.23.09-.25l1.44-.22a.6.6,0,0,0,.43-.31l.65-1.31c.07-.15.19-.15.27,0l.65,1.31a.6.6,0,0,0,.43.31l1.45.21c.16,0,.2.14.08.25l-1.05,1a.61.61,0,0,0-.16.5l.25,1.44c0,.17-.07.24-.22.16Z" transform="translate(-20.91 -46.17)"/><rect class="cls-3" x="465.09" y="59.26" width="4.95" height="1.47" transform="translate(73.64 302.05) rotate(-45)"/><polygon class="cls-3" points="446.32 14.16 448.32 16.16 446.17 16.32 444.01 16.48 444.17 14.32 444.32 12.16 446.32 14.16"/><rect class="cls-3" x="469.02" y="55.33" width="4.95" height="1.47" transform="translate(77.49 303.58) rotate(-44.99)"/><polygon class="cls-3" points="450.93 9.56 448.93 7.56 451.08 7.41 453.24 7.25 453.08 9.41 452.93 11.56 450.93 9.56"/></svg>